<svg width="143" height="40" viewBox="0 0 143 40" fill="none" xmlns="http://www.w3.org/2000/svg">
<path d="M141.342 15.8274C141.423 15.8274 141.476 15.775 141.476 15.6876C141.476 15.6022 141.423 15.5542 141.342 15.5542H141.211V15.8274H141.342ZM141.056 15.4362H141.373C141.528 15.4362 141.633 15.5346 141.633 15.6876C141.633 15.8144 141.55 15.8887 141.482 15.9061V15.9105C141.482 15.9105 141.491 15.9193 141.511 15.9563L141.668 16.2603H141.498L141.345 15.9412H141.211V16.2603H141.056V15.4362ZM141.323 16.5009C141.675 16.5009 141.946 16.2166 141.946 15.8515C141.946 15.4864 141.675 15.2022 141.323 15.2022C140.975 15.2022 140.706 15.4864 140.706 15.8515C140.706 16.2166 140.975 16.5009 141.323 16.5009ZM141.323 15.0535C141.758 15.0535 142.105 15.4078 142.105 15.8515C142.105 16.2953 141.758 16.6495 141.323 16.6495C140.892 16.6495 140.547 16.2953 140.547 15.8515C140.547 15.4078 140.892 15.0535 141.323 15.0535Z" fill="white"/>
<path d="M137.43 28.9138V28.9263C137.455 29.4902 137.267 30.042 136.929 30.4931L136.941 30.5182L136.954 30.5057C136.642 30.8763 136.17 31.0724 135.687 31.0323H133.756V26.895H135.7C136.182 26.8549 136.654 27.0512 136.966 27.4217L136.954 27.4091C137.289 27.8367 137.458 28.3711 137.43 28.9138V28.9138ZM133.756 19.2344H135.462C135.888 19.2051 136.306 19.3657 136.602 19.6731L136.627 19.6983C136.924 20.0986 137.066 20.5918 137.029 21.0882C137.076 21.6114 136.914 22.1461 136.602 22.5818V22.5692C136.321 22.8953 135.904 23.0713 135.474 23.0457H133.756V19.2344ZM141.417 28.8886V28.9138C141.417 27.3086 140.69 25.7788 139.436 24.7759L139.461 24.7885L139.486 24.7633C140.52 23.7702 141.104 22.3982 141.104 20.9646V21.0395C141.156 19.5419 140.636 18.0806 139.649 16.9524L139.674 16.9895C138.61 15.8013 137.082 15.1333 135.487 15.1593H130.045C129.859 15.1586 129.707 15.309 129.707 15.4952C129.706 15.4962 129.706 15.4971 129.707 15.4981V34.6683C129.707 34.8567 129.857 35.007 130.045 35.007H135.712C137.43 35.032 139.072 34.2924 140.176 32.9758L140.163 32.9883C141.052 31.8123 141.496 30.3603 141.417 28.8886" fill="white"/>
<path d="M126.685 29.1519V15.5106C126.672 15.3477 126.535 15.2095 126.372 15.2095H122.873C122.702 15.1944 122.55 15.3212 122.535 15.4927C122.535 15.4944 122.535 15.4962 122.535 15.4981V29.1519C122.56 29.7031 122.409 30.2424 122.084 30.6811C121.514 31.3079 120.546 31.3585 119.915 30.7942C119.871 30.763 119.833 30.7248 119.802 30.6811C119.481 30.2427 119.321 29.7069 119.35 29.1644V15.5106C119.338 15.3351 119.188 15.2095 119.012 15.2095H115.526C115.351 15.2095 115.2 15.3351 115.188 15.5106V29.1895C115.075 30.7942 115.602 32.4113 116.655 33.6652L116.692 33.7028C119.137 35.8969 122.861 35.8718 125.268 33.628L125.218 33.6652C126.273 32.4074 126.799 30.7895 126.685 29.1519" fill="white"/>
<path d="M111.868 15.2096C111.867 15.2096 111.866 15.2096 111.865 15.2096H111.853H108.455C108.269 15.2089 108.117 15.3593 108.116 15.5454C108.116 15.5465 108.116 15.5473 108.116 15.5483V22.9707H104.669V15.5483C104.67 15.362 104.519 15.2104 104.333 15.2096C104.332 15.2096 104.331 15.2096 104.33 15.2096H100.945C100.758 15.209 100.607 15.3596 100.606 15.5459C100.606 15.5468 100.606 15.5475 100.606 15.5483V34.6683C100.606 34.8567 100.757 35.007 100.945 35.007H104.343C104.529 35.0074 104.68 34.8569 104.681 34.6706C104.681 34.6699 104.681 34.669 104.681 34.6683V26.9824H108.129V34.6683C108.129 34.8567 108.279 35.007 108.468 35.007H111.865C112.051 35.0077 112.203 34.8574 112.204 34.671C112.204 34.67 112.204 34.6692 112.204 34.6683V15.5483C112.205 15.362 112.054 15.2104 111.868 15.2096Z" fill="white"/>
<path d="M94.0613 28.9138V28.9263C94.0864 29.4902 93.8985 30.042 93.5597 30.4931L93.5723 30.5182L93.5849 30.5057C93.2731 30.8763 92.8011 31.0724 92.3185 31.0323H90.3878V26.895H92.3311C92.8137 26.8549 93.2856 27.0512 93.5974 27.4217L93.5849 27.4091C93.92 27.8367 94.0892 28.3711 94.0613 28.9138V28.9138ZM90.3878 19.2344V19.2339H92.0929C92.5195 19.2046 92.9372 19.3653 93.234 19.6731L93.2588 19.6983C93.5551 20.0985 93.6972 20.5918 93.6607 21.0882C93.7077 21.6114 93.5451 22.1461 93.234 22.5818V22.5692C92.9527 22.8953 92.5353 23.0715 92.1055 23.0457H90.3878V19.2344ZM98.0741 28.8887V28.9389C98.0741 27.3212 97.3469 25.804 96.093 24.7888H96.0926L96.1177 24.7633C97.1492 23.7721 97.7327 22.4041 97.7346 20.9739C97.7499 19.5252 97.2332 18.1206 96.2805 17.0277V17.0403C95.2162 15.8519 93.6884 15.1839 92.0934 15.2096H86.6762C86.4898 15.2089 86.3382 15.3593 86.3374 15.5454C86.3374 15.5465 86.3374 15.5473 86.3374 15.5484V34.6683C86.3374 34.8567 86.4881 35.007 86.6762 35.007H92.3693C94.0869 35.032 95.7292 34.2924 96.8328 32.9758L96.8203 32.9883C97.7086 31.8123 98.1527 30.3603 98.0741 28.8887" fill="white"/>
<path d="M83.3287 29.1519V15.5106C83.3146 15.3408 83.173 15.2099 83.0025 15.2095H79.53C79.3547 15.2095 79.2043 15.3351 79.1914 15.5106V29.1514C79.2165 29.7157 79.0536 30.2679 78.7151 30.7061C78.1442 31.3207 77.1855 31.3672 76.5585 30.8068C76.5148 30.7756 76.4766 30.7374 76.4455 30.6937C76.1248 30.2553 75.9653 29.7195 75.9942 29.177V15.5106C75.9933 15.3431 75.8569 15.208 75.6895 15.2087C75.6824 15.2087 75.6755 15.209 75.6685 15.2095H72.1825C72.011 15.1942 71.8596 15.3209 71.8443 15.4922C71.8441 15.4941 71.8439 15.496 71.8437 15.4981V29.1519C71.7312 30.7932 72.2572 32.4093 73.3088 33.6628C74.4322 34.7863 75.9728 35.392 77.5611 35.3331H77.6114C79.1997 35.392 80.7403 34.7863 81.8637 33.6628C82.9174 32.4054 83.4425 30.7885 83.3287 29.1519" fill="white"/>
<path d="M64.848 22.9577H64.8605L64.8611 22.958C64.5121 23.3314 64.0171 23.5329 63.5068 23.5095H61.8393V19.2338H63.4942C64.0045 19.2107 64.4994 19.4126 64.848 19.7861V19.7735C65.2011 20.198 65.3843 20.7385 65.3621 21.2902V21.3154C65.3998 21.9174 65.2243 22.4941 64.848 22.9577ZM66.9547 26.4813V26.4809L66.9672 26.4687C67.3179 26.2301 67.6316 25.9421 67.9199 25.6286L67.9074 25.6537C68.9452 24.4517 69.4915 22.9024 69.4372 21.3154V21.278C69.4642 19.7107 68.895 18.1915 67.8446 17.0276L67.9074 17.1027C66.8645 15.9244 65.3805 15.23 63.8077 15.1844H58.1029C57.9167 15.1837 57.765 15.3341 57.7643 15.5202C57.7643 15.5213 57.7643 15.5221 57.7643 15.5231V34.6682C57.7643 34.8567 57.9145 35.0069 58.1029 35.0069H61.5006C61.6869 35.0077 61.8385 34.8573 61.8393 34.671C61.8393 34.67 61.8393 34.6691 61.8393 34.6682V27.5849H63.0931L65.237 34.8067C65.2742 34.9446 65.4123 35.045 65.5625 35.045H69.1737C69.2821 35.0442 69.384 34.9931 69.4497 34.9069C69.4998 34.8129 69.4998 34.7003 69.4497 34.6063L66.9547 26.4813" fill="white"/>
<path d="M53.6772 16.5644C52.5493 15.4387 51.0061 14.8303 49.4137 14.8835L49.4141 14.8838H49.3889C47.796 14.8247 46.2506 15.4334 45.126 16.5635L45.1637 16.5136C44.0857 17.7574 43.5327 19.3713 43.6215 21.0149V29.1645C43.509 30.8057 44.035 32.4219 45.0864 33.6754C46.21 34.7989 47.7504 35.4046 49.3387 35.3457H49.4015C50.9948 35.4047 52.5402 34.7954 53.6646 33.6652C54.7195 32.4074 55.2453 30.7896 55.1314 29.1519V24.7005C55.1221 24.5125 54.9683 24.3643 54.7803 24.3618H49.7649C49.5744 24.3636 49.4166 24.5106 49.4015 24.7005V28.0352C49.4141 28.2359 49.5644 28.3866 49.7649 28.3866H51.1443V29.1514C51.1727 29.725 51.0046 30.2913 50.6679 30.7565L50.6806 30.7435C50.3795 31.1199 49.9156 31.3329 49.4392 31.2952H49.4141C48.9378 31.3324 48.4739 31.145 48.1728 30.7686C47.822 30.3143 47.6443 29.75 47.6713 29.1765V21.0771C47.6472 20.4887 47.8339 19.9109 48.198 19.4479C48.4991 19.0716 48.9629 18.8584 49.4392 18.8961H49.4643C49.9407 18.8589 50.4041 19.0468 50.7057 19.4228L50.7308 19.4479C51.0473 19.9249 51.1932 20.4947 51.1443 21.0651V21.8173C51.1569 21.9932 51.3072 22.1184 51.4826 22.1184H54.8807C55.0561 22.1184 55.2063 21.9928 55.219 21.8173V21.0525C55.3069 19.4102 54.7551 17.8051 53.6646 16.5644H53.6772" fill="white"/>
<path d="M33.7754 12.0017C33.6997 11.9074 33.6417 11.7907 33.6307 11.6675V11.6677C33.2668 7.583 32.6851 4.87392 32.6851 4.87392C32.5935 4.40626 32.1895 4.06231 31.7265 4.00708L28.4651 3.61255C28.4369 3.60911 28.4082 3.60722 28.3789 3.60722C27.9985 3.60722 27.69 3.91572 27.69 4.29632V5.42933C27.6896 5.45204 27.6711 5.47028 27.6484 5.47028C27.638 5.47028 27.6286 5.4665 27.6212 5.4603L27.6213 5.46047C25.6679 3.70116 23.4685 1.9933 21.032 0.48898C20.5683 0.179101 20.0175 -1.20009e-05 19.4179 -1.20009e-05V0.000160227H19.4163V-1.20009e-05C18.8167 -1.20009e-05 18.2658 0.179101 17.8021 0.48898C6.54291 7.44019 0.345461 18.7402 0.106263 19.3608C0.0381106 19.5052 0 19.6664 0 19.8367C0 20.3581 0.357764 20.796 0.841286 20.9183L4.08475 21.5425C4.51798 21.6613 4.84618 22.0339 4.8953 22.4896C4.92178 23.0623 5.53468 35.852 6.30471 39.1696C6.4308 39.6475 6.86707 39.9999 7.38454 39.9999H7.40897C9.30112 39.9526 11.0344 39.9211 12.9059 39.8958C12.9059 39.8958 12.9059 39.8958 12.9058 39.8958H12.9004L12.9178 39.8956C12.9656 39.895 13.0135 39.8944 13.0617 39.8938C13.2616 39.8938 13.4237 39.7296 13.4237 39.5297C13.4237 39.5266 13.4237 39.5235 13.4235 39.5203C13.3476 38.4037 13.184 35.8501 13.0515 33.1617C13.0482 33.0941 13.0429 33.0094 13.0396 32.9411H13.0398C13.0276 32.7071 12.8987 32.5036 12.7101 32.3888C11.737 31.8066 11.0699 30.7653 11.0079 29.5641C10.8378 25.0787 10.7514 19.8952 10.9969 15.8391C11.0165 15.5015 11.2936 15.2311 11.6372 15.225C11.9975 15.2188 12.2946 15.5058 12.301 15.8661C12.3013 15.8833 12.301 15.9004 12.2999 15.9172C12.1399 18.621 12.1255 21.8175 12.184 24.9713C12.1914 25.3975 12.5431 25.7374 12.9694 25.73C13.3956 25.7224 13.7353 25.3707 13.7279 24.9443C13.6694 21.7691 13.685 18.552 13.8493 15.8391C13.8688 15.5015 14.1458 15.2311 14.4894 15.225C14.8497 15.2188 15.147 15.5058 15.1532 15.8661C15.1536 15.8833 15.1532 15.9004 15.1522 15.9172C14.993 18.6067 14.9781 21.7839 15.0353 24.9216C15.0353 24.9221 15.0353 24.9228 15.0353 24.9235C15.0438 25.3485 15.3948 25.6866 15.8199 25.6792C16.2442 25.6718 16.5825 25.3232 16.5779 24.8996C16.5202 21.7389 16.5367 18.5392 16.7 15.8391C16.7196 15.5015 16.9967 15.2311 17.3403 15.225C17.7006 15.2188 17.9977 15.5058 18.0041 15.8661C18.0044 15.8833 18.0041 15.9004 18.003 15.9172C17.7697 19.8603 17.8459 24.8514 18.0065 29.2296C18.0065 29.2324 18.0079 29.2678 18.0079 29.2706C18.0085 29.2928 18.0091 29.315 18.0094 29.3372C18.0094 29.3374 18.0094 29.3374 18.0094 29.3375C18.0096 29.3518 18.0096 29.3663 18.0096 29.3807C18.0096 30.5781 17.4087 31.6352 16.4922 32.267C16.3287 32.3802 16.2181 32.5623 16.2036 32.7745C16.2036 32.7745 16.1231 33.4466 16.4206 36.7048C16.5591 38.127 16.6649 39.1126 16.7138 39.5584C16.7332 39.7273 16.8766 39.8585 17.0507 39.8585C17.152 39.8579 17.2535 39.8576 17.3573 39.8573H17.353C17.9777 39.8548 18.6223 39.8535 19.2919 39.8533H19.417H19.5423C20.3886 39.8535 21.1951 39.8555 21.9723 39.8593L23.8121 39.8757C23.8128 39.8757 23.8135 39.8757 23.8142 39.8757C23.9893 39.8757 24.1327 39.743 24.158 39.5722C24.584 35.6677 24.6841 33.4752 24.6841 33.4752C24.6841 33.2779 24.5334 33.1299 24.3355 33.0994L22.1006 32.7911C21.7472 32.729 21.5373 32.5113 21.4618 32.2434C21.4155 32.081 21.4337 31.8985 21.4337 31.8985C22.3398 18.8847 26.6304 14.4991 26.6304 14.4991C26.7571 14.3701 26.8386 14.3193 26.8386 14.3193C26.9519 14.2371 27.0914 14.1884 27.2421 14.1884C27.5331 14.1884 27.7819 14.3697 27.8822 14.6252C27.8822 14.6252 27.9175 14.7159 27.9376 14.938C28.3079 19.0287 28.1272 25.9898 27.898 31.4203C27.7036 36.0295 27.4684 39.6475 27.4684 39.6475C27.4682 39.6499 27.4682 39.6523 27.4682 39.6547C27.4682 39.8029 27.5883 39.923 27.7364 39.923V39.9231C28.9545 39.9434 30.1539 39.9682 31.4251 39.9999H31.4495C31.9671 39.9999 32.4034 39.6475 32.5293 39.1696C33.2995 35.852 33.9124 23.0623 33.9389 22.4896C33.9879 22.0339 34.3162 21.6613 34.7494 21.5425L37.9928 20.9183C38.4762 20.796 38.8341 20.3581 38.8341 19.8367C38.8341 19.6664 38.7959 19.5052 38.7278 19.3608C38.6051 19.0425 36.9139 15.9128 33.7754 12.0017" fill="white"/>
</svg>
